<?xml version="1.0" encoding="UTF-8" standalone="no"?>
<!DOCTYPE svg PUBLIC "-//W3C//DTD SVG 1.1//EN"
 "http://www.w3.org/Graphics/SVG/1.1/DTD/svg11.dtd">
<!-- Generated by graphviz version 2.40.1 (20161225.0304)
 -->
<!-- Title: G Pages: 1 -->
<svg width="999pt" height="1084pt"
 viewBox="0.00 0.00 999.47 1083.61" xmlns="http://www.w3.org/2000/svg" xmlns:xlink="http://www.w3.org/1999/xlink">
<g id="graph0" class="graph" transform="scale(1 1) rotate(0) translate(4 1079.6084)">
<title>G</title>
<polygon fill="#ffffff" stroke="transparent" points="-4,4 -4,-1079.6084 995.4728,-1079.6084 995.4728,4 -4,4"/>
<!-- index.js -->
<g id="node1" class="node">
<title>index.js</title>
<path fill="#e5e5e5" stroke="#000000" d="M51.7101,-357.7008C51.7101,-357.7008 8.2303,-357.7008 8.2303,-357.7008 4.13,-357.7008 .0298,-353.6005 .0298,-349.5003 .0298,-349.5003 .0298,-341.2997 .0298,-341.2997 .0298,-337.1995 4.13,-333.0992 8.2303,-333.0992 8.2303,-333.0992 51.7101,-333.0992 51.7101,-333.0992 55.8104,-333.0992 59.9106,-337.1995 59.9106,-341.2997 59.9106,-341.2997 59.9106,-349.5003 59.9106,-349.5003 59.9106,-353.6005 55.8104,-357.7008 51.7101,-357.7008"/>
<text text-anchor="middle" x="29.9702" y="-341.2" font-family="Times,serif" font-size="14.00" fill="#000000">index.js</text>
</g>
<!-- lib/egg.js -->
<g id="node2" class="node">
<title>lib/egg.js</title>
<path fill="#e5e5e5" stroke="#000000" d="M155.3228,-239.7008C155.3228,-239.7008 104.2796,-239.7008 104.2796,-239.7008 100.1793,-239.7008 96.079,-235.6005 96.079,-231.5003 96.079,-231.5003 96.079,-223.2997 96.079,-223.2997 96.079,-219.1995 100.1793,-215.0992 104.2796,-215.0992 104.2796,-215.0992 155.3228,-215.0992 155.3228,-215.0992 159.4231,-215.0992 163.5234,-219.1995 163.5234,-223.2997 163.5234,-223.2997 163.5234,-231.5003 163.5234,-231.5003 163.5234,-235.6005 159.4231,-239.7008 155.3228,-239.7008"/>
<text text-anchor="middle" x="129.8012" y="-223.2" font-family="Times,serif" font-size="14.00" fill="#000000">lib/egg.js</text>
</g>
<!-- index.js&#45;&gt;lib/egg.js -->
<g id="edge1" class="edge">
<title>index.js&#45;&gt;lib/egg.js</title>
<path fill="none" stroke="#000000" d="M40.6539,-332.7719C57.842,-312.4556 91.796,-272.3221 112.4806,-247.8729"/>
<polygon fill="#000000" stroke="#000000" points="115.4075,-249.8322 119.1944,-239.9373 110.0634,-245.311 115.4075,-249.8322"/>
</g>
<!-- lib/loader/egg_loader.js -->
<g id="node3" class="node">
<title>lib/loader/egg_loader.js</title>
<path fill="#e5e5e5" stroke="#000000" d="M356.9387,-506.7008C356.9387,-506.7008 225.1925,-506.7008 225.1925,-506.7008 221.0923,-506.7008 216.992,-502.6005 216.992,-498.5003 216.992,-498.5003 216.992,-490.2997 216.992,-490.2997 216.992,-486.1995 221.0923,-482.0992 225.1925,-482.0992 225.1925,-482.0992 356.9387,-482.0992 356.9387,-482.0992 361.0389,-482.0992 365.1392,-486.1995 365.1392,-490.2997 365.1392,-490.2997 365.1392,-498.5003 365.1392,-498.5003 365.1392,-502.6005 361.0389,-506.7008 356.9387,-506.7008"/>
<text text-anchor="middle" x="291.0656" y="-490.2" font-family="Times,serif" font-size="14.00" fill="#000000">lib/loader/egg_loader.js</text>
</g>
<!-- index.js&#45;&gt;lib/loader/egg_loader.js -->
<g id="edge2" class="edge">
<title>index.js&#45;&gt;lib/loader/egg_loader.js</title>
<path fill="none" stroke="#000000" d="M51.782,-357.8474C98.2611,-384.3718 207.1617,-446.5184 260.5155,-476.9659"/>
<polygon fill="#000000" stroke="#000000" points="259.0795,-480.1762 269.4995,-482.0928 262.549,-474.0965 259.0795,-480.1762"/>
</g>
<!-- lib/utils/base_context_class.js -->
<g id="node4" class="node">
<title>lib/utils/base_context_class.js</title>
<path fill="#e5e5e5" stroke="#000000" d="M374.1724,-24.7008C374.1724,-24.7008 207.9588,-24.7008 207.9588,-24.7008 203.8586,-24.7008 199.7583,-20.6005 199.7583,-16.5003 199.7583,-16.5003 199.7583,-8.2997 199.7583,-8.2997 199.7583,-4.1995 203.8586,-.0992 207.9588,-.0992 207.9588,-.0992 374.1724,-.0992 374.1724,-.0992 378.2726,-.0992 382.3729,-4.1995 382.3729,-8.2997 382.3729,-8.2997 382.3729,-16.5003 382.3729,-16.5003 382.3729,-20.6005 378.2726,-24.7008 374.1724,-24.7008"/>
<text text-anchor="middle" x="291.0656" y="-8.2" font-family="Times,serif" font-size="14.00" fill="#000000">lib/utils/base_context_class.js</text>
</g>
<!-- index.js&#45;&gt;lib/utils/base_context_class.js -->
<g id="edge3" class="edge">
<title>index.js&#45;&gt;lib/utils/base_context_class.js</title>
<path fill="none" stroke="#000000" d="M33.5571,-332.9082C47.15,-287.8085 99.8475,-131.8196 199.662,-51.4 211.451,-41.9017 225.8975,-34.3327 239.7944,-28.4863"/>
<polygon fill="#000000" stroke="#000000" points="241.2889,-31.6586 249.2882,-24.7115 238.7026,-25.154 241.2889,-31.6586"/>
</g>
<!-- lib/utils/index.js -->
<g id="node5" class="node">
<title>lib/utils/index.js</title>
<path fill="#e5e5e5" stroke="#000000" d="M983.0825,-688.7008C983.0825,-688.7008 893.2439,-688.7008 893.2439,-688.7008 889.1436,-688.7008 885.0433,-684.6005 885.0433,-680.5003 885.0433,-680.5003 885.0433,-672.2997 885.0433,-672.2997 885.0433,-668.1995 889.1436,-664.0992 893.2439,-664.0992 893.2439,-664.0992 983.0825,-664.0992 983.0825,-664.0992 987.1828,-664.0992 991.2831,-668.1995 991.2831,-672.2997 991.2831,-672.2997 991.2831,-680.5003 991.2831,-680.5003 991.2831,-684.6005 987.1828,-688.7008 983.0825,-688.7008"/>
<text text-anchor="middle" x="938.1632" y="-672.2" font-family="Times,serif" font-size="14.00" fill="#000000">lib/utils/index.js</text>
</g>
<!-- index.js&#45;&gt;lib/utils/index.js -->
<g id="edge4" class="edge">
<title>index.js&#45;&gt;lib/utils/index.js</title>
<path fill="none" stroke="#000000" d="M31.6573,-357.7581C44.8979,-452.3043 135.7065,-1057.4 291.0656,-1057.4 291.0656,-1057.4 291.0656,-1057.4 521.1498,-1057.4 667.7213,-1057.4 738.1407,-1116.4514 848.8536,-1020.4 898.3005,-977.5013 927.1346,-769.3868 935.5559,-699.4088"/>
<polygon fill="#000000" stroke="#000000" points="939.0811,-699.3987 936.7725,-689.0584 932.1289,-698.5814 939.0811,-699.3987"/>
</g>
<!-- lib/egg.js&#45;&gt;lib/loader/egg_loader.js -->
<g id="edge6" class="edge">
<title>lib/egg.js&#45;&gt;lib/loader/egg_loader.js</title>
<path fill="none" stroke="#000000" d="M141.9222,-239.9216C172.9532,-283.0697 254.7378,-418.7795 282.0441,-472.8225"/>
<polygon fill="#000000" stroke="#000000" points="278.9535,-474.47 286.4843,-481.9224 285.2446,-471.4004 278.9535,-474.47"/>
</g>
<!-- lib/egg.js&#45;&gt;lib/utils/base_context_class.js -->
<g id="edge7" class="edge">
<title>lib/egg.js&#45;&gt;lib/utils/base_context_class.js</title>
<path fill="none" stroke="#000000" d="M133.3484,-215.045C143.8419,-179.2041 175.5087,-76.1754 199.662,-51.4 209.0672,-41.7525 221.24,-34.3618 233.6167,-28.7487"/>
<polygon fill="#000000" stroke="#000000" points="235.2012,-31.88 243.0785,-24.795 232.5022,-25.4212 235.2012,-31.88"/>
</g>
<!-- lib/egg.js&#45;&gt;lib/utils/index.js -->
<g id="edge8" class="edge">
<title>lib/egg.js&#45;&gt;lib/utils/index.js</title>
<path fill="none" stroke="#000000" d="M137.9494,-214.9876C149.4581,-198.7066 172.1679,-170.8655 199.662,-159.4 289.4329,-121.964 321.2094,-156.2889 418.4692,-155.4 616.1137,-153.5936 727.3608,-111.4958 848.8536,-267.4 897.0763,-329.2811 927.4791,-577.6515 935.8236,-653.975"/>
<polygon fill="#000000" stroke="#000000" points="932.3464,-654.3757 936.8942,-663.9448 939.3064,-653.6282 932.3464,-654.3757"/>
</g>
<!-- lib/lifecycle.js -->
<g id="node6" class="node">
<title>lib/lifecycle.js</title>
<path fill="#e5e5e5" stroke="#000000" d="M793.8397,-309.7008C793.8397,-309.7008 714.8443,-309.7008 714.8443,-309.7008 710.744,-309.7008 706.6437,-305.6005 706.6437,-301.5003 706.6437,-301.5003 706.6437,-293.2997 706.6437,-293.2997 706.6437,-289.1995 710.744,-285.0992 714.8443,-285.0992 714.8443,-285.0992 793.8397,-285.0992 793.8397,-285.0992 797.94,-285.0992 802.0403,-289.1995 802.0403,-293.2997 802.0403,-293.2997 802.0403,-301.5003 802.0403,-301.5003 802.0403,-305.6005 797.94,-309.7008 793.8397,-309.7008"/>
<text text-anchor="middle" x="754.342" y="-293.2" font-family="Times,serif" font-size="14.00" fill="#000000">lib/lifecycle.js</text>
</g>
<!-- lib/egg.js&#45;&gt;lib/lifecycle.js -->
<g id="edge5" class="edge">
<title>lib/egg.js&#45;&gt;lib/lifecycle.js</title>
<path fill="none" stroke="#000000" d="M163.7206,-215.643C245.6382,-189.1851 459.626,-131.6926 623.8304,-190.4 672.1271,-207.6674 715.3988,-251.352 737.9345,-277.2512"/>
<polygon fill="#000000" stroke="#000000" points="735.3597,-279.6261 744.5028,-284.9791 740.6934,-275.0927 735.3597,-279.6261"/>
</g>
<!-- lib/utils/timing.js -->
<g id="node7" class="node">
<title>lib/utils/timing.js</title>
<path fill="#e5e5e5" stroke="#000000" d="M569.0257,-232.7008C569.0257,-232.7008 473.2739,-232.7008 473.2739,-232.7008 469.1736,-232.7008 465.0734,-228.6005 465.0734,-224.5003 465.0734,-224.5003 465.0734,-216.2997 465.0734,-216.2997 465.0734,-212.1995 469.1736,-208.0992 473.2739,-208.0992 473.2739,-208.0992 569.0257,-208.0992 569.0257,-208.0992 573.126,-208.0992 577.2262,-212.1995 577.2262,-216.2997 577.2262,-216.2997 577.2262,-224.5003 577.2262,-224.5003 577.2262,-228.6005 573.126,-232.7008 569.0257,-232.7008"/>
<text text-anchor="middle" x="521.1498" y="-216.2" font-family="Times,serif" font-size="14.00" fill="#000000">lib/utils/timing.js</text>
</g>
<!-- lib/egg.js&#45;&gt;lib/utils/timing.js -->
<g id="edge9" class="edge">
<title>lib/egg.js&#45;&gt;lib/utils/timing.js</title>
<path fill="none" stroke="#000000" d="M163.8462,-226.791C228.5585,-225.6335 370.358,-223.0972 454.5656,-221.591"/>
<polygon fill="#000000" stroke="#000000" points="454.8561,-225.0864 464.7919,-221.4081 454.7308,-218.0876 454.8561,-225.0864"/>
</g>
<!-- lib/loader/egg_loader.js&#45;&gt;lib/egg.js -->
<g id="edge12" class="edge">
<title>lib/loader/egg_loader.js&#45;&gt;lib/egg.js</title>
<path fill="none" stroke="#000000" d="M278.8785,-481.7864C247.8307,-438.5839 166.2836,-303.2708 138.91,-249.1503"/>
<polygon fill="#000000" stroke="#000000" points="141.9886,-247.4783 134.4536,-240.0302 135.6993,-250.5516 141.9886,-247.4783"/>
</g>
<!-- lib/loader/egg_loader.js&#45;&gt;lib/utils/index.js -->
<g id="edge24" class="edge">
<title>lib/loader/egg_loader.js&#45;&gt;lib/utils/index.js</title>
<path fill="none" stroke="#000000" d="M296.5487,-506.8248C311.0999,-538.0688 354.0383,-619.7384 418.4692,-652.4 567.577,-727.9863 772.7317,-706.8209 874.9482,-689.2952"/>
<polygon fill="#000000" stroke="#000000" points="875.5688,-692.7398 884.8112,-687.5602 874.356,-685.8457 875.5688,-692.7398"/>
</g>
<!-- lib/loader/egg_loader.js&#45;&gt;lib/utils/timing.js -->
<g id="edge25" class="edge">
<title>lib/loader/egg_loader.js&#45;&gt;lib/utils/timing.js</title>
<path fill="none" stroke="#000000" d="M293.9516,-481.8878C303.8252,-441.9223 340.07,-316.1787 418.4692,-251.4 429.0964,-242.6191 442.164,-236.3244 455.372,-231.8122"/>
<polygon fill="#000000" stroke="#000000" points="456.4671,-235.1371 464.9813,-228.8316 454.3933,-228.4513 456.4671,-235.1371"/>
</g>
<!-- lib/loader/context_loader.js -->
<g id="node8" class="node">
<title>lib/loader/context_loader.js</title>
<path fill="#e5e5e5" stroke="#000000" d="M597.5186,-537.7008C597.5186,-537.7008 444.781,-537.7008 444.781,-537.7008 440.6807,-537.7008 436.5805,-533.6005 436.5805,-529.5003 436.5805,-529.5003 436.5805,-521.2997 436.5805,-521.2997 436.5805,-517.1995 440.6807,-513.0992 444.781,-513.0992 444.781,-513.0992 597.5186,-513.0992 597.5186,-513.0992 601.6189,-513.0992 605.7191,-517.1995 605.7191,-521.2997 605.7191,-521.2997 605.7191,-529.5003 605.7191,-529.5003 605.7191,-533.6005 601.6189,-537.7008 597.5186,-537.7008"/>
<text text-anchor="middle" x="521.1498" y="-521.2" font-family="Times,serif" font-size="14.00" fill="#000000">lib/loader/context_loader.js</text>
</g>
<!-- lib/loader/egg_loader.js&#45;&gt;lib/loader/context_loader.js -->
<g id="edge13" class="edge">
<title>lib/loader/egg_loader.js&#45;&gt;lib/loader/context_loader.js</title>
<path fill="none" stroke="#000000" d="M365.4496,-504.422C384.7682,-507.0249 405.8424,-509.8643 426.0674,-512.5892"/>
<polygon fill="#000000" stroke="#000000" points="425.8554,-516.0922 436.2333,-513.9589 426.7902,-509.1549 425.8554,-516.0922"/>
</g>
<!-- lib/loader/file_loader.js -->
<g id="node9" class="node">
<title>lib/loader/file_loader.js</title>
<path fill="#e5e5e5" stroke="#000000" d="M819.6563,-587.7008C819.6563,-587.7008 689.0277,-587.7008 689.0277,-587.7008 684.9275,-587.7008 680.8272,-583.6005 680.8272,-579.5003 680.8272,-579.5003 680.8272,-571.2997 680.8272,-571.2997 680.8272,-567.1995 684.9275,-563.0992 689.0277,-563.0992 689.0277,-563.0992 819.6563,-563.0992 819.6563,-563.0992 823.7565,-563.0992 827.8568,-567.1995 827.8568,-571.2997 827.8568,-571.2997 827.8568,-579.5003 827.8568,-579.5003 827.8568,-583.6005 823.7565,-587.7008 819.6563,-587.7008"/>
<text text-anchor="middle" x="754.342" y="-571.2" font-family="Times,serif" font-size="14.00" fill="#000000">lib/loader/file_loader.js</text>
</g>
<!-- lib/loader/egg_loader.js&#45;&gt;lib/loader/file_loader.js -->
<g id="edge14" class="edge">
<title>lib/loader/egg_loader.js&#45;&gt;lib/loader/file_loader.js</title>
<path fill="none" stroke="#000000" d="M299.0565,-506.8697C316.7589,-533.1799 362.2006,-593.8036 418.4692,-616.4 520.406,-657.3358 652.6317,-616.5921 716.5074,-591.6533"/>
<polygon fill="#000000" stroke="#000000" points="718.1672,-594.7594 726.1571,-587.8014 715.5721,-588.2582 718.1672,-594.7594"/>
</g>
<!-- lib/loader/mixin/config.js -->
<g id="node10" class="node">
<title>lib/loader/mixin/config.js</title>
<path fill="#e5e5e5" stroke="#000000" d="M592.1557,-598.7008C592.1557,-598.7008 450.1439,-598.7008 450.1439,-598.7008 446.0436,-598.7008 441.9433,-594.6005 441.9433,-590.5003 441.9433,-590.5003 441.9433,-582.2997 441.9433,-582.2997 441.9433,-578.1995 446.0436,-574.0992 450.1439,-574.0992 450.1439,-574.0992 592.1557,-574.0992 592.1557,-574.0992 596.256,-574.0992 600.3563,-578.1995 600.3563,-582.2997 600.3563,-582.2997 600.3563,-590.5003 600.3563,-590.5003 600.3563,-594.6005 596.256,-598.7008 592.1557,-598.7008"/>
<text text-anchor="middle" x="521.1498" y="-582.2" font-family="Times,serif" font-size="14.00" fill="#000000">lib/loader/mixin/config.js</text>
</g>
<!-- lib/loader/egg_loader.js&#45;&gt;lib/loader/mixin/config.js -->
<g id="edge15" class="edge">
<title>lib/loader/egg_loader.js&#45;&gt;lib/loader/mixin/config.js</title>
<path fill="none" stroke="#000000" d="M314.073,-506.739C339.2308,-519.9159 380.9709,-540.8613 418.4692,-555.4 433.3523,-561.1704 449.7814,-566.5523 465.0522,-571.1588"/>
<polygon fill="#000000" stroke="#000000" points="464.3101,-574.5891 474.8922,-574.0703 466.2962,-567.8768 464.3101,-574.5891"/>
</g>
<!-- lib/loader/mixin/controller.js -->
<g id="node11" class="node">
<title>lib/loader/mixin/controller.js</title>
<path fill="#e5e5e5" stroke="#000000" d="M601.8122,-293.7008C601.8122,-293.7008 440.4874,-293.7008 440.4874,-293.7008 436.3871,-293.7008 432.2868,-289.6005 432.2868,-285.5003 432.2868,-285.5003 432.2868,-277.2997 432.2868,-277.2997 432.2868,-273.1995 436.3871,-269.0992 440.4874,-269.0992 440.4874,-269.0992 601.8122,-269.0992 601.8122,-269.0992 605.9125,-269.0992 610.0128,-273.1995 610.0128,-277.2997 610.0128,-277.2997 610.0128,-285.5003 610.0128,-285.5003 610.0128,-289.6005 605.9125,-293.7008 601.8122,-293.7008"/>
<text text-anchor="middle" x="521.1498" y="-277.2" font-family="Times,serif" font-size="14.00" fill="#000000">lib/loader/mixin/controller.js</text>
</g>
<!-- lib/loader/egg_loader.js&#45;&gt;lib/loader/mixin/controller.js -->
<g id="edge16" class="edge">
<title>lib/loader/egg_loader.js&#45;&gt;lib/loader/mixin/controller.js</title>
<path fill="none" stroke="#000000" d="M296.1737,-482.0949C310.4131,-449.3189 353.7988,-359.2193 418.4692,-312.4 426.9848,-306.235 436.7384,-301.2815 446.7697,-297.3049"/>
<polygon fill="#000000" stroke="#000000" points="448.2418,-300.4938 456.4412,-293.7841 445.8471,-293.9161 448.2418,-300.4938"/>
</g>
<!-- lib/loader/mixin/custom.js -->
<g id="node12" class="node">
<title>lib/loader/mixin/custom.js</title>
<path fill="#e5e5e5" stroke="#000000" d="M594.8305,-476.7008C594.8305,-476.7008 447.4691,-476.7008 447.4691,-476.7008 443.3688,-476.7008 439.2686,-472.6005 439.2686,-468.5003 439.2686,-468.5003 439.2686,-460.2997 439.2686,-460.2997 439.2686,-456.1995 443.3688,-452.0992 447.4691,-452.0992 447.4691,-452.0992 594.8305,-452.0992 594.8305,-452.0992 598.9308,-452.0992 603.031,-456.1995 603.031,-460.2997 603.031,-460.2997 603.031,-468.5003 603.031,-468.5003 603.031,-472.6005 598.9308,-476.7008 594.8305,-476.7008"/>
<text text-anchor="middle" x="521.1498" y="-460.2" font-family="Times,serif" font-size="14.00" fill="#000000">lib/loader/mixin/custom.js</text>
</g>
<!-- lib/loader/egg_loader.js&#45;&gt;lib/loader/mixin/custom.js -->
<g id="edge17" class="edge">
<title>lib/loader/egg_loader.js&#45;&gt;lib/loader/mixin/custom.js</title>
<path fill="none" stroke="#000000" d="M365.4496,-484.7013C385.7381,-482.0559 407.9627,-479.1581 429.1067,-476.4012"/>
<polygon fill="#000000" stroke="#000000" points="429.5957,-479.8672 439.0592,-475.1036 428.6906,-472.9259 429.5957,-479.8672"/>
</g>
<!-- lib/loader/mixin/custom_loader.js -->
<g id="node13" class="node">
<title>lib/loader/mixin/custom_loader.js</title>
<path fill="#e5e5e5" stroke="#000000" d="M615.8108,-415.7008C615.8108,-415.7008 426.4888,-415.7008 426.4888,-415.7008 422.3885,-415.7008 418.2883,-411.6005 418.2883,-407.5003 418.2883,-407.5003 418.2883,-399.2997 418.2883,-399.2997 418.2883,-395.1995 422.3885,-391.0992 426.4888,-391.0992 426.4888,-391.0992 615.8108,-391.0992 615.8108,-391.0992 619.9111,-391.0992 624.0113,-395.1995 624.0113,-399.2997 624.0113,-399.2997 624.0113,-407.5003 624.0113,-407.5003 624.0113,-411.6005 619.9111,-415.7008 615.8108,-415.7008"/>
<text text-anchor="middle" x="521.1498" y="-399.2" font-family="Times,serif" font-size="14.00" fill="#000000">lib/loader/mixin/custom_loader.js</text>
</g>
<!-- lib/loader/egg_loader.js&#45;&gt;lib/loader/mixin/custom_loader.js -->
<g id="edge18" class="edge">
<title>lib/loader/egg_loader.js&#45;&gt;lib/loader/mixin/custom_loader.js</title>
<path fill="none" stroke="#000000" d="M314.5617,-482.0546C339.7885,-469.1051 381.2668,-448.6871 418.4692,-434.4 433.442,-428.6499 449.9631,-423.2598 465.2958,-418.6384"/>
<polygon fill="#000000" stroke="#000000" points="466.5756,-421.9098 475.1717,-415.7165 464.5895,-415.1975 466.5756,-421.9098"/>
</g>
<!-- lib/loader/mixin/extend.js -->
<g id="node14" class="node">
<title>lib/loader/mixin/extend.js</title>
<path fill="#e5e5e5" stroke="#000000" d="M593.2097,-354.7008C593.2097,-354.7008 449.0899,-354.7008 449.0899,-354.7008 444.9897,-354.7008 440.8894,-350.6005 440.8894,-346.5003 440.8894,-346.5003 440.8894,-338.2997 440.8894,-338.2997 440.8894,-334.1995 444.9897,-330.0992 449.0899,-330.0992 449.0899,-330.0992 593.2097,-330.0992 593.2097,-330.0992 597.3099,-330.0992 601.4102,-334.1995 601.4102,-338.2997 601.4102,-338.2997 601.4102,-346.5003 601.4102,-346.5003 601.4102,-350.6005 597.3099,-354.7008 593.2097,-354.7008"/>
<text text-anchor="middle" x="521.1498" y="-338.2" font-family="Times,serif" font-size="14.00" fill="#000000">lib/loader/mixin/extend.js</text>
</g>
<!-- lib/loader/egg_loader.js&#45;&gt;lib/loader/mixin/extend.js -->
<g id="edge19" class="edge">
<title>lib/loader/egg_loader.js&#45;&gt;lib/loader/mixin/extend.js</title>
<path fill="none" stroke="#000000" d="M300.8609,-481.7781C320.52,-457.2901 367.3024,-403.1336 418.4692,-373.4 429.2676,-367.1249 441.4559,-362.01 453.5645,-357.8781"/>
<polygon fill="#000000" stroke="#000000" points="454.7806,-361.1637 463.2302,-354.7718 452.6389,-354.4994 454.7806,-361.1637"/>
</g>
<!-- lib/loader/mixin/middleware.js -->
<g id="node15" class="node">
<title>lib/loader/mixin/middleware.js</title>
<path fill="#e5e5e5" stroke="#000000" d="M840.6647,-810.7008C840.6647,-810.7008 668.0193,-810.7008 668.0193,-810.7008 663.9191,-810.7008 659.8188,-806.6005 659.8188,-802.5003 659.8188,-802.5003 659.8188,-794.2997 659.8188,-794.2997 659.8188,-790.1995 663.9191,-786.0992 668.0193,-786.0992 668.0193,-786.0992 840.6647,-786.0992 840.6647,-786.0992 844.7649,-786.0992 848.8652,-790.1995 848.8652,-794.2997 848.8652,-794.2997 848.8652,-802.5003 848.8652,-802.5003 848.8652,-806.6005 844.7649,-810.7008 840.6647,-810.7008"/>
<text text-anchor="middle" x="754.342" y="-794.2" font-family="Times,serif" font-size="14.00" fill="#000000">lib/loader/mixin/middleware.js</text>
</g>
<!-- lib/loader/egg_loader.js&#45;&gt;lib/loader/mixin/middleware.js -->
<g id="edge20" class="edge">
<title>lib/loader/egg_loader.js&#45;&gt;lib/loader/mixin/middleware.js</title>
<path fill="none" stroke="#000000" d="M292.9419,-506.877C300.1079,-549.7591 329.9543,-691.9397 418.4692,-755.4 484.7261,-802.9026 577.7625,-811.5579 649.1209,-809.5144"/>
<polygon fill="#000000" stroke="#000000" points="649.6195,-812.9987 659.4861,-809.1386 649.3658,-806.0033 649.6195,-812.9987"/>
</g>
<!-- lib/loader/mixin/plugin.js -->
<g id="node16" class="node">
<title>lib/loader/mixin/plugin.js</title>
<path fill="#e5e5e5" stroke="#000000" d="M592.1711,-1002.7008C592.1711,-1002.7008 450.1285,-1002.7008 450.1285,-1002.7008 446.0282,-1002.7008 441.928,-998.6005 441.928,-994.5003 441.928,-994.5003 441.928,-986.2997 441.928,-986.2997 441.928,-982.1995 446.0282,-978.0992 450.1285,-978.0992 450.1285,-978.0992 592.1711,-978.0992 592.1711,-978.0992 596.2714,-978.0992 600.3716,-982.1995 600.3716,-986.2997 600.3716,-986.2997 600.3716,-994.5003 600.3716,-994.5003 600.3716,-998.6005 596.2714,-1002.7008 592.1711,-1002.7008"/>
<text text-anchor="middle" x="521.1498" y="-986.2" font-family="Times,serif" font-size="14.00" fill="#000000">lib/loader/mixin/plugin.js</text>
</g>
<!-- lib/loader/egg_loader.js&#45;&gt;lib/loader/mixin/plugin.js -->
<g id="edge21" class="edge">
<title>lib/loader/egg_loader.js&#45;&gt;lib/loader/mixin/plugin.js</title>
<path fill="none" stroke="#000000" d="M292.8496,-506.9738C302.6276,-574.2222 351.7242,-890.9117 418.4692,-959.4 424.0434,-965.1198 430.6321,-969.7932 437.7388,-973.6102"/>
<polygon fill="#000000" stroke="#000000" points="436.4459,-976.8709 446.9803,-978.0014 439.4502,-970.5483 436.4459,-976.8709"/>
</g>
<!-- lib/loader/mixin/router.js -->
<g id="node17" class="node">
<title>lib/loader/mixin/router.js</title>
<path fill="#e5e5e5" stroke="#000000" d="M591.3165,-941.7008C591.3165,-941.7008 450.9831,-941.7008 450.9831,-941.7008 446.8828,-941.7008 442.7826,-937.6005 442.7826,-933.5003 442.7826,-933.5003 442.7826,-925.2997 442.7826,-925.2997 442.7826,-921.1995 446.8828,-917.0992 450.9831,-917.0992 450.9831,-917.0992 591.3165,-917.0992 591.3165,-917.0992 595.4168,-917.0992 599.517,-921.1995 599.517,-925.2997 599.517,-925.2997 599.517,-933.5003 599.517,-933.5003 599.517,-937.6005 595.4168,-941.7008 591.3165,-941.7008"/>
<text text-anchor="middle" x="521.1498" y="-925.2" font-family="Times,serif" font-size="14.00" fill="#000000">lib/loader/mixin/router.js</text>
</g>
<!-- lib/loader/egg_loader.js&#45;&gt;lib/loader/mixin/router.js -->
<g id="edge22" class="edge">
<title>lib/loader/egg_loader.js&#45;&gt;lib/loader/mixin/router.js</title>
<path fill="none" stroke="#000000" d="M293.3906,-506.926C305.0801,-568.6551 359.2149,-839.8689 418.4692,-898.4 424.291,-904.1507 431.1398,-908.8406 438.4914,-912.6644"/>
<polygon fill="#000000" stroke="#000000" points="437.4858,-916.0546 448.0329,-917.0592 440.4144,-909.6966 437.4858,-916.0546"/>
</g>
<!-- lib/loader/mixin/service.js -->
<g id="node18" class="node">
<title>lib/loader/mixin/service.js</title>
<path fill="#e5e5e5" stroke="#000000" d="M594.0298,-880.7008C594.0298,-880.7008 448.2698,-880.7008 448.2698,-880.7008 444.1695,-880.7008 440.0693,-876.6005 440.0693,-872.5003 440.0693,-872.5003 440.0693,-864.2997 440.0693,-864.2997 440.0693,-860.1995 444.1695,-856.0992 448.2698,-856.0992 448.2698,-856.0992 594.0298,-856.0992 594.0298,-856.0992 598.1301,-856.0992 602.2303,-860.1995 602.2303,-864.2997 602.2303,-864.2997 602.2303,-872.5003 602.2303,-872.5003 602.2303,-876.6005 598.1301,-880.7008 594.0298,-880.7008"/>
<text text-anchor="middle" x="521.1498" y="-864.2" font-family="Times,serif" font-size="14.00" fill="#000000">lib/loader/mixin/service.js</text>
</g>
<!-- lib/loader/egg_loader.js&#45;&gt;lib/loader/mixin/service.js -->
<g id="edge23" class="edge">
<title>lib/loader/egg_loader.js&#45;&gt;lib/loader/mixin/service.js</title>
<path fill="none" stroke="#000000" d="M292.2058,-506.9997C297.2601,-555.5836 321.8711,-732.8433 418.4692,-829.4 428.3993,-839.3259 441.1113,-846.7683 454.1834,-852.3346"/>
<polygon fill="#000000" stroke="#000000" points="453.1429,-855.6857 463.731,-856.065 455.6904,-849.1657 453.1429,-855.6857"/>
</g>
<!-- lib/lifecycle.js&#45;&gt;lib/utils/index.js -->
<g id="edge10" class="edge">
<title>lib/lifecycle.js&#45;&gt;lib/utils/index.js</title>
<path fill="none" stroke="#000000" d="M779.6999,-309.7818C801.1544,-321.5147 831.1549,-341.0952 848.8536,-366.4 913.8867,-459.3814 931.9209,-599.339 936.6152,-653.6914"/>
<polygon fill="#000000" stroke="#000000" points="933.1484,-654.2499 937.4265,-663.9425 940.1265,-653.6975 933.1484,-654.2499"/>
</g>
<!-- lib/loader/context_loader.js&#45;&gt;lib/loader/file_loader.js -->
<g id="edge11" class="edge">
<title>lib/loader/context_loader.js&#45;&gt;lib/loader/file_loader.js</title>
<path fill="none" stroke="#000000" d="M578.7928,-537.7596C611.5685,-544.7872 652.7784,-553.6232 687.0326,-560.9678"/>
<polygon fill="#000000" stroke="#000000" points="686.4468,-564.4217 696.9584,-563.0961 687.9144,-557.5773 686.4468,-564.4217"/>
</g>
<!-- lib/loader/file_loader.js&#45;&gt;lib/utils/index.js -->
<g id="edge26" class="edge">
<title>lib/loader/file_loader.js&#45;&gt;lib/utils/index.js</title>
<path fill="none" stroke="#000000" d="M776.8821,-587.7846C809.4944,-605.7033 869.9651,-638.9288 906.8802,-659.2116"/>
<polygon fill="#000000" stroke="#000000" points="905.2769,-662.3242 915.7266,-664.0723 908.6478,-656.1893 905.2769,-662.3242"/>
</g>
<!-- lib/loader/mixin/controller.js&#45;&gt;lib/utils/index.js -->
<g id="edge28" class="edge">
<title>lib/loader/mixin/controller.js&#45;&gt;lib/utils/index.js</title>
<path fill="none" stroke="#000000" d="M580.3746,-293.7052C595.2066,-298.2583 610.6381,-304.3478 623.8304,-312.4 774.0137,-404.0672 889.9347,-591.4606 926.2387,-654.8744"/>
<polygon fill="#000000" stroke="#000000" points="923.4047,-656.9732 931.3748,-663.9538 929.4975,-653.5266 923.4047,-656.9732"/>
</g>
<!-- lib/loader/mixin/controller.js&#45;&gt;lib/loader/file_loader.js -->
<g id="edge27" class="edge">
<title>lib/loader/mixin/controller.js&#45;&gt;lib/loader/file_loader.js</title>
<path fill="none" stroke="#000000" d="M593.9286,-293.7114C604.9605,-298.16 615.4399,-304.201 623.8304,-312.4 660.6217,-348.3517 638.1614,-375.7462 659.8304,-422.4 682.9723,-472.2248 718.9515,-525.8383 739.1883,-554.4938"/>
<polygon fill="#000000" stroke="#000000" points="736.5146,-556.7729 745.1692,-562.8842 742.2146,-552.7096 736.5146,-556.7729"/>
</g>
<!-- lib/loader/mixin/middleware.js&#45;&gt;lib/utils/index.js -->
<g id="edge29" class="edge">
<title>lib/loader/mixin/middleware.js&#45;&gt;lib/utils/index.js</title>
<path fill="none" stroke="#000000" d="M787.9649,-785.9611C806.6069,-778.3738 829.7999,-767.7639 848.8536,-755.4 875.3571,-738.2019 902.0028,-713.4305 919.2007,-696.2289"/>
<polygon fill="#000000" stroke="#000000" points="921.882,-698.4943 926.4032,-688.9126 916.8935,-693.5835 921.882,-698.4943"/>
</g>
<!-- lib/loader/mixin/plugin.js&#45;&gt;lib/utils/index.js -->
<g id="edge30" class="edge">
<title>lib/loader/mixin/plugin.js&#45;&gt;lib/utils/index.js</title>
<path fill="none" stroke="#000000" d="M570.3039,-978.093C587.5447,-973.1171 606.8394,-966.7889 623.8304,-959.4 729.9533,-913.2501 766.8604,-910.0639 848.8536,-828.4 887.9898,-789.421 916.331,-729.8606 929.6479,-698.1079"/>
<polygon fill="#000000" stroke="#000000" points="932.8935,-699.4178 933.4383,-688.837 926.4141,-696.7687 932.8935,-699.4178"/>
</g>
<!-- lib/utils/sequencify.js -->
<g id="node19" class="node">
<title>lib/utils/sequencify.js</title>
<path fill="#e5e5e5" stroke="#000000" d="M814.2952,-1002.7008C814.2952,-1002.7008 694.3888,-1002.7008 694.3888,-1002.7008 690.2886,-1002.7008 686.1883,-998.6005 686.1883,-994.5003 686.1883,-994.5003 686.1883,-986.2997 686.1883,-986.2997 686.1883,-982.1995 690.2886,-978.0992 694.3888,-978.0992 694.3888,-978.0992 814.2952,-978.0992 814.2952,-978.0992 818.3954,-978.0992 822.4957,-982.1995 822.4957,-986.2997 822.4957,-986.2997 822.4957,-994.5003 822.4957,-994.5003 822.4957,-998.6005 818.3954,-1002.7008 814.2952,-1002.7008"/>
<text text-anchor="middle" x="754.342" y="-986.2" font-family="Times,serif" font-size="14.00" fill="#000000">lib/utils/sequencify.js</text>
</g>
<!-- lib/loader/mixin/plugin.js&#45;&gt;lib/utils/sequencify.js -->
<g id="edge31" class="edge">
<title>lib/loader/mixin/plugin.js&#45;&gt;lib/utils/sequencify.js</title>
<path fill="none" stroke="#000000" d="M600.4234,-990.4C624.8007,-990.4 651.6112,-990.4 675.9304,-990.4"/>
<polygon fill="#000000" stroke="#000000" points="676.186,-993.9001 686.186,-990.4 676.186,-986.9001 676.186,-993.9001"/>
</g>
</g>
</svg>
