
                <svg xmlns="http://www.w3.org/2000/svg" xmlns:xlink="http://www.w3.org/1999/xlink" width="593" height="426" shape-rendering="optimizeSpeed">
                
                <g>
                   <rect x="50" y="65" width="248.4" height="30" rx="3" ry="3" style="fill:#90caf9; stroke:#444; stroke-width:1"></rect>
                   <title>const path = require('path')</title>
            <text x="65" y="85" font-family="monospace" font-size="13" fill="#222">
                <tspan x="65" y="85">const path = require('path')</tspan>
            </text>
                   
                   
                </g>
                <g>
                   <rect x="50" y="113.5" width="186" height="30" rx="3" ry="3" style="fill:#90caf9; stroke:#444; stroke-width:1"></rect>
                   <title>module.exports = {*}</title>
            <text x="65" y="133.5" font-family="monospace" font-size="13" fill="#222">
                <tspan x="65" y="133.5">module.exports = {*}</tspan>
            </text>
                   
                   
                </g>
            <g>
                <rect x="87" y="177" width="143.6" height="30" style="fill:#a5d6a7; stroke:#444; stroke-width:1"></rect>
                    
                <line x1="97" y1="177" x2="97" y2="207" style="fill:#a5d6a7; stroke:#444; stroke-width:1"></line>
                <line x1="220.6" y1="177" x2="220.6" y2="207" style="fill:#a5d6a7; stroke:#444; stroke-width:1"></line>
             
                <title>loadRouter()</title>
            <text x="112" y="197" font-family="monospace" font-size="13" fill="#222">
                <tspan x="112" y="197">loadRouter()</tspan>
            </text>
                
            </g>
                <g>
                   <rect x="124" y="225.5" width="108" height="30" rx="3" ry="3" style="fill:#90caf9; stroke:#444; stroke-width:1"></rect>
                   <title>loadRouter</title>
            <text x="139" y="245.5" font-family="monospace" font-size="13" fill="#222">
                <tspan x="139" y="245.5">loadRouter</tspan>
            </text>
                   
                   
                </g>
                <g>
                   <rect x="124" y="274" width="279.6" height="30" rx="2" ry="2" style="fill:#C5E1A5; stroke:#444; stroke-width:1"></rect>
                   <title>this.timing.start('Load Router')</title>
            <text x="139" y="294" font-family="monospace" font-size="13" fill="#222">
                <tspan x="139" y="294">this.timing.start('Load Router')</tspan>
            </text>
                   
                   
                </g>
                <g>
                   <rect x="124" y="322.5" width="443.4" height="30" rx="2" ry="2" style="fill:#C5E1A5; stroke:#444; stroke-width:1"></rect>
                   <title>this.loadFile(path.join(this.options.baseDir, 'app/router'))</title>
            <text x="139" y="342.5" font-family="monospace" font-size="13" fill="#222">
                <tspan x="139" y="342.5">this.loadFile(path.join(this.options.baseDir, 'app...</tspan>
            </text>
                   
                   
                </g>
                <g>
                   <rect x="124" y="371" width="264" height="30" rx="2" ry="2" style="fill:#C5E1A5; stroke:#444; stroke-width:1"></rect>
                   <title>this.timing.end('Load Router')</title>
            <text x="139" y="391" font-family="monospace" font-size="13" fill="#222">
                <tspan x="139" y="391">this.timing.end('Load Router')</tspan>
            </text>
                   
                   
                </g>
            <g>
               <rect x="25" y="13.75" width="216.6" height="24" style="fill:#fff59d; stroke:#444; stroke-width:1"></rect>
               <circle cx="25" cy="25" r="15" style="fill:#fff59d; stroke:#444; stroke-width:1"></circle>
               <title>Program: source module</title>
            <text x="55" y="30" font-family="monospace" font-size="13" fill="#222">
                <tspan x="55" y="30">Program: source module</tspan>
            </text>
            </g>
            <g>
               <path d="M25, 40 L25 76 Q25 80
                29 80
                L42 80 " style="fill:none; stroke:#444; stroke-width:1"></path>
               <path d="M42, 77 L50, 80 L42, 83 Z" fill="#333"></path>
            </g>
            <g>
               <path d="M25, 40 L25 124.5 Q25 128.5
                29 128.5
                L42 128.5 " style="fill:none; stroke:#444; stroke-width:1"></path>
               <path d="M42, 125.5 L50, 128.5 L42, 131.5 Z" fill="#333"></path>
            </g>
            <g>
               <path d="M68.5, 143.5 L68.5 188 Q68.5 192
                72.5 192
                L87 192 " style="fill:none; stroke:#444; stroke-width:1"></path>
               false
            </g>
            <g>
               <path d="M105.5, 207 L105.5 236.5 Q105.5 240.5
                109.5 240.5
                L116 240.5 " style="fill:none; stroke:#444; stroke-width:1"></path>
               <path d="M116, 237.5 L124, 240.5 L116, 243.5 Z" fill="#333"></path>
            </g>
            <g>
               <path d="M105.5, 207 L105.5 285 Q105.5 289
                109.5 289
                L116 289 " style="fill:none; stroke:#444; stroke-width:1"></path>
               <path d="M116, 286 L124, 289 L116, 292 Z" fill="#333"></path>
            </g>
            <g>
               <path d="M105.5, 207 L105.5 333.5 Q105.5 337.5
                109.5 337.5
                L116 337.5 " style="fill:none; stroke:#444; stroke-width:1"></path>
               <path d="M116, 334.5 L124, 337.5 L116, 340.5 Z" fill="#333"></path>
            </g>
            <g>
               <path d="M105.5, 207 L105.5 382 Q105.5 386
                109.5 386
                L116 386 " style="fill:none; stroke:#444; stroke-width:1"></path>
               <path d="M116, 383 L124, 386 L116, 389 Z" fill="#333"></path>
            </g>
            </svg>