
                <svg xmlns="http://www.w3.org/2000/svg" xmlns:xlink="http://www.w3.org/1999/xlink" width="1291" height="2393" shape-rendering="optimizeSpeed">
                
                <g>
                   <rect x="50" y="65" width="279.6" height="30" rx="3" ry="3" style="fill:#90caf9; stroke:#444; stroke-width:1"></rect>
                   <title>const assert = require('assert')</title>
            <text x="65" y="85" font-family="monospace" font-size="13" fill="#222">
                <tspan x="65" y="85">const assert = require('assert')</tspan>
            </text>
                   
                   
                </g>
                <g>
                   <rect x="50" y="113.5" width="248.4" height="30" rx="3" ry="3" style="fill:#90caf9; stroke:#444; stroke-width:1"></rect>
                   <title>const path = require('path')</title>
            <text x="65" y="133.5" font-family="monospace" font-size="13" fill="#222">
                <tspan x="65" y="133.5">const path = require('path')</tspan>
            </text>
                   
                   
                </g>
                <g>
                   <rect x="50" y="162" width="279.6" height="30" rx="3" ry="3" style="fill:#90caf9; stroke:#444; stroke-width:1"></rect>
                   <title>const is = require('is-type-of')</title>
            <text x="65" y="182" font-family="monospace" font-size="13" fill="#222">
                <tspan x="65" y="182">const is = require('is-type-of')</tspan>
            </text>
                   
                   
                </g>
                <g>
                   <rect x="50" y="210.5" width="186" height="30" rx="3" ry="3" style="fill:#90caf9; stroke:#444; stroke-width:1"></rect>
                   <title>module.exports = {*}</title>
            <text x="65" y="230.5" font-family="monospace" font-size="13" fill="#222">
                <tspan x="65" y="230.5">module.exports = {*}</tspan>
            </text>
                   
                   
                </g>
            <g>
                <rect x="87" y="274" width="190.4" height="30" style="fill:#a5d6a7; stroke:#444; stroke-width:1"></rect>
                    
                <line x1="97" y1="274" x2="97" y2="304" style="fill:#a5d6a7; stroke:#444; stroke-width:1"></line>
                <line x1="267.4" y1="274" x2="267.4" y2="304" style="fill:#a5d6a7; stroke:#444; stroke-width:1"></line>
             
                <title>loadCustomLoader()</title>
            <text x="112" y="294" font-family="monospace" font-size="13" fill="#222">
                <tspan x="112" y="294">loadCustomLoader()</tspan>
            </text>
                
            </g>
                <g>
                   <rect x="124" y="322.5" width="154.8" height="30" rx="3" ry="3" style="fill:#90caf9; stroke:#444; stroke-width:1"></rect>
                   <title>loadCustomLoader</title>
            <text x="139" y="342.5" font-family="monospace" font-size="13" fill="#222">
                <tspan x="139" y="342.5">loadCustomLoader</tspan>
            </text>
                   
                   
                </g>
                <g>
                   <rect x="124" y="371" width="178.2" height="30" rx="3" ry="3" style="fill:#90caf9; stroke:#444; stroke-width:1"></rect>
                   <title>const loader = this</title>
            <text x="139" y="391" font-family="monospace" font-size="13" fill="#222">
                <tspan x="139" y="391">const loader = this</tspan>
            </text>
                   
                   
                </g>
                <g>
                   <rect x="124" y="419.5" width="404.4" height="30" rx="2" ry="2" style="fill:#C5E1A5; stroke:#444; stroke-width:1"></rect>
                   <title>assert(loader.config, 'should loadConfig first')</title>
            <text x="139" y="439.5" font-family="monospace" font-size="13" fill="#222">
                <tspan x="139" y="439.5">assert(loader.config, 'should loadConfig first')</tspan>
            </text>
                   
                   
                </g>
                <g>
                   <rect x="124" y="468" width="443.4" height="30" rx="3" ry="3" style="fill:#90caf9; stroke:#444; stroke-width:1"></rect>
                   <title>const customLoader = loader.config.customLoader || {}</title>
            <text x="139" y="488" font-family="monospace" font-size="13" fill="#222">
                <tspan x="139" y="488">const customLoader = loader.config.customLoader ||...</tspan>
            </text>
                   
                   
                </g><g>

            <rect x="154" y="551.5" width="356.4" height="30" rx="3" ry="3" style="fill:#b39ddb; stroke:#444; stroke-width:1"></rect>
            <polygon points="124,566.5 154,536.5 184,566.5 154,596.5" style="fill:#b39ddb; stroke:#444; stroke-width:1"></polygon>
                
            <title> property of Object.keys(customLoader)</title>
            <text x="199" y="571.5" font-family="monospace" font-size="13" fill="#222">
                <tspan x="199" y="571.5"> property of Object.keys(customLoader)</tspan>
            </text>
            
            <text x="142.3" y="571.5" font-family="monospace" font-size="13" fill="#222">for</text>
        </g>
                <g>
                   <rect x="174" y="606.5" width="225" height="30" rx="2" ry="2" style="fill:#C5E1A5; stroke:#444; stroke-width:1"></rect>
                   <title>Object.keys(customLoader)</title>
            <text x="189" y="626.5" font-family="monospace" font-size="13" fill="#222">
                <tspan x="189" y="626.5">Object.keys(customLoader)</tspan>
            </text>
                   
                   
                </g>
                <g>
                   <rect x="174" y="655" width="443.4" height="30" rx="3" ry="3" style="fill:#90caf9; stroke:#444; stroke-width:1"></rect>
                   <title>const loaderConfig = Object.assign({*}, customLoader[property])</title>
            <text x="189" y="675" font-family="monospace" font-size="13" fill="#222">
                <tspan x="189" y="675">const loaderConfig = Object.assign({*}, customLoad...</tspan>
            </text>
                   
                   
                </g>
                <g>
                   <rect x="174" y="703.5" width="92.4" height="30" rx="3" ry="3" style="fill:#90caf9; stroke:#444; stroke-width:1"></rect>
                   <title>property</title>
            <text x="189" y="723.5" font-family="monospace" font-size="13" fill="#222">
                <tspan x="189" y="723.5">property</tspan>
            </text>
                   
                   
                </g>
                <g>
                   <rect x="174" y="752" width="443.4" height="30" rx="2" ry="2" style="fill:#C5E1A5; stroke:#444; stroke-width:1"></rect>
                   <title>assert(loaderConfig.directory, `directory is required for config.customLoader.${property}`)</title>
            <text x="189" y="772" font-family="monospace" font-size="13" fill="#222">
                <tspan x="189" y="772">assert(loaderConfig.directory, `directory is requi...</tspan>
            </text>
                   
                   
                </g><g>
            <rect x="204" y="815.5" width="309.6" height="30" rx="3" ry="3" style="fill:#ce93d8; stroke:#444; stroke-width:1"></rect>                
            <polygon points="174,830.5 204,800.5 234,830.5 204,860.5" style="fill:#ce93d8; stroke:#444; stroke-width:1"></polygon>
            <title>(loaderConfig.loadunit === true)</title>
            <text x="249" y="835.5" font-family="monospace" font-size="13" fill="#222">
                <tspan x="249" y="835.5">(loaderConfig.loadunit === true)</tspan>
            </text>
            
            <text x="196.2" y="835.5" font-family="monospace" font-size="13" fill="#222">if</text> <text x="211.8" y="862.45" font-family="monospace" font-size="13" fill="#222">+</text> <text x="517.5" y="828.55" font-family="monospace" font-size="13" fill="#222">-</text>
        </g>
                <g>
                   <rect x="224" y="870.5" width="240.6" height="30" rx="3" ry="3" style="fill:#90caf9; stroke:#444; stroke-width:1"></rect>
                   <title>directory = [object Object]</title>
            <text x="239" y="890.5" font-family="monospace" font-size="13" fill="#222">
                <tspan x="239" y="890.5">directory = [object Object]</tspan>
            </text>
                   
                   
                </g>
                <g>
                   <rect x="261" y="919" width="178.2" height="30" rx="2" ry="2" style="fill:#C5E1A5; stroke:#444; stroke-width:1"></rect>
                   <title>this.getLoadUnits()</title>
            <text x="276" y="939" font-family="monospace" font-size="13" fill="#222">
                <tspan x="276" y="939">this.getLoadUnits()</tspan>
            </text>
                   
                   
                </g>
            <g>
                <rect x="261" y="967.5" width="120.2" height="30" style="fill:#a5d6a7; stroke:#444; stroke-width:1"></rect>
                    
                <line x1="271" y1="967.5" x2="271" y2="997.5" style="fill:#a5d6a7; stroke:#444; stroke-width:1"></line>
                <line x1="371.2" y1="967.5" x2="371.2" y2="997.5" style="fill:#a5d6a7; stroke:#444; stroke-width:1"></line>
             
                <title>(unit) =&gt;</title>
            <text x="286" y="987.5" font-family="monospace" font-size="13" fill="#222">
                <tspan x="286" y="987.5">(unit) =&gt;</tspan>
            </text>
                
            </g>
            <g>
                <rect x="298" y="1016" width="443.4" height="30" rx="3" ry="3" style="fill:#90caf9; stroke:#444; stroke-width:1"></rect>
                
                <line x1="741.4" y1="1026" x2="746.4" y2="1026" style="fill:#a5d6a7; stroke:#444; stroke-width:1"></line>
                
                <line x1="741.4" y1="1036" x2="746.4" y2="1036" style="fill:#a5d6a7; stroke:#444; stroke-width:1"></line>

                <path d="M746.4, 1020 L762.4, 1031 L746.4, 1042 Z" fill="#a5d6a7" stroke="#444" stroke-width="1"></path>
                             
                <title>return path.join(unit.path, loaderConfig.directory)</title>
            <text x="313" y="1036" font-family="monospace" font-size="13" fill="#222">
                <tspan x="313" y="1036">return path.join(unit.path, loaderConfig.directory...</tspan>
            </text>
                
            </g>
                <g>
                   <rect x="822.4" y="870.5" width="443.4" height="30" rx="3" ry="3" style="fill:#90caf9; stroke:#444; stroke-width:1"></rect>
                   <title>directory = path.join(loader.appInfo.baseDir, loaderConfig.directory)</title>
            <text x="837.4" y="890.5" font-family="monospace" font-size="13" fill="#222">
                <tspan x="837.4" y="890.5">directory = path.join(loader.appInfo.baseDir, load...</tspan>
            </text>
                   
                   
                </g>
                <g>
                   <rect x="174" y="1066" width="365.4" height="30" rx="3" ry="3" style="fill:#90caf9; stroke:#444; stroke-width:1"></rect>
                   <title>const inject = loaderConfig.inject || 'app'</title>
            <text x="189" y="1086" font-family="monospace" font-size="13" fill="#222">
                <tspan x="189" y="1086">const inject = loaderConfig.inject || 'app'</tspan>
            </text>
                   
                   
                </g><g>
            <rect x="204" y="1129.5" width="177" height="30" rx="3" ry="3" style="fill:#ce93d8; stroke:#444; stroke-width:1"></rect>                
            <polygon points="174,1144.5 204,1114.5 234,1144.5 204,1174.5" style="fill:#ce93d8; stroke:#444; stroke-width:1"></polygon>
            <title>switch (inject)</title>
            <text x="249" y="1149.5" font-family="monospace" font-size="13" fill="#222">
                <tspan x="249" y="1149.5">switch (inject)</tspan>
            </text>
            
            <text x="196.2" y="1149.5" font-family="monospace" font-size="13" fill="#222">if</text> <text x="211.8" y="1176.45" font-family="monospace" font-size="13" fill="#222">+</text> 
        </g>
                <g>
                   <rect x="224" y="1184.5" width="115.8" height="30" rx="2" ry="2" style="fill:#ce93d8; stroke:#444; stroke-width:1"></rect>
                   <title>case 'ctx':</title>
            <text x="239" y="1204.5" font-family="monospace" font-size="13" fill="#222">
                <tspan x="239" y="1204.5">case 'ctx':</tspan>
            </text>
                   
                   
                </g>
                <g>
                   <rect x="261" y="1233" width="92.4" height="30" rx="3" ry="3" style="fill:#90caf9; stroke:#444; stroke-width:1"></rect>
                   <title>property</title>
            <text x="276" y="1253" font-family="monospace" font-size="13" fill="#222">
                <tspan x="276" y="1253">property</tspan>
            </text>
                   
                   
                </g>
                <g>
                   <rect x="261" y="1281.5" width="443.4" height="30" rx="2" ry="2" style="fill:#C5E1A5; stroke:#444; stroke-width:1"></rect>
                   <title>assert(!(property in loader.app.context), `customLoader should not override ctx.${property}`)</title>
            <text x="276" y="1301.5" font-family="monospace" font-size="13" fill="#222">
                <tspan x="276" y="1301.5">assert(!(property in loader.app.context), `customL...</tspan>
            </text>
                   
                   
                </g>
                <g>
                   <rect x="261" y="1330" width="225" height="30" rx="3" ry="3" style="fill:#90caf9; stroke:#444; stroke-width:1"></rect>
                   <title>const defaultConfig = {*}</title>
            <text x="276" y="1350" font-family="monospace" font-size="13" fill="#222">
                <tspan x="276" y="1350">const defaultConfig = {*}</tspan>
            </text>
                   
                   
                </g>
                <g>
                   <rect x="298" y="1378.5" width="170.4" height="30" rx="2" ry="2" style="fill:#90caf9; stroke:#444; stroke-width:1"></rect>
                   <title>caseStyle: 'lower'</title>
            <text x="313" y="1398.5" font-family="monospace" font-size="13" fill="#222">
                <tspan x="313" y="1398.5">caseStyle: 'lower'</tspan>
            </text>
                   
                   
                </g>
                <g>
                   <rect x="298" y="1427" width="279.6" height="30" rx="2" ry="2" style="fill:#90caf9; stroke:#444; stroke-width:1"></rect>
                   <title>fieldClass: `${property}Classes`</title>
            <text x="313" y="1447" font-family="monospace" font-size="13" fill="#222">
                <tspan x="313" y="1447">fieldClass: `${property}Classes`</tspan>
            </text>
                   
                   
                </g>
                <g>
                   <rect x="335" y="1475.5" width="92.4" height="30" rx="3" ry="3" style="fill:#90caf9; stroke:#444; stroke-width:1"></rect>
                   <title>property</title>
            <text x="350" y="1495.5" font-family="monospace" font-size="13" fill="#222">
                <tspan x="350" y="1495.5">property</tspan>
            </text>
                   
                   
                </g>
                <g>
                   <rect x="261" y="1524" width="443.4" height="30" rx="2" ry="2" style="fill:#C5E1A5; stroke:#444; stroke-width:1"></rect>
                   <title>loader.loadToContext(directory, property, Object.assign(defaultConfig, loaderConfig))</title>
            <text x="276" y="1544" font-family="monospace" font-size="13" fill="#222">
                <tspan x="276" y="1544">loader.loadToContext(directory, property, Object.a...</tspan>
            </text>
                   
                   
                </g>
            <g>
                <rect x="261" y="1572.5" width="69" height="30" rx="2" ry="2" style="fill:#90caf9; stroke:#444; stroke-width:1"></rect>
                
                <line x1="330" y1="1582.5" x2="335" y2="1582.5" style="fill:#ce93d8; stroke:#444; stroke-width:1"></line>
                
                <line x1="330" y1="1592.5" x2="335" y2="1592.5" style="fill:#ce93d8; stroke:#444; stroke-width:1"></line>

                <path d="M335, 1573.5 L351, 1587.5 L335, 1601.5 Z" fill="#ce93d8" stroke="#444" stroke-width="1"></path>
                             
                <title>break</title>
            <text x="276" y="1592.5" font-family="monospace" font-size="13" fill="#222">
                <tspan x="276" y="1592.5">break</tspan>
            </text>
                
            </g>
                <g>
                   <rect x="224" y="1621" width="115.8" height="30" rx="2" ry="2" style="fill:#ce93d8; stroke:#444; stroke-width:1"></rect>
                   <title>case 'app':</title>
            <text x="239" y="1641" font-family="monospace" font-size="13" fill="#222">
                <tspan x="239" y="1641">case 'app':</tspan>
            </text>
                   
                   
                </g>
                <g>
                   <rect x="261" y="1669.5" width="92.4" height="30" rx="3" ry="3" style="fill:#90caf9; stroke:#444; stroke-width:1"></rect>
                   <title>property</title>
            <text x="276" y="1689.5" font-family="monospace" font-size="13" fill="#222">
                <tspan x="276" y="1689.5">property</tspan>
            </text>
                   
                   
                </g>
                <g>
                   <rect x="261" y="1718" width="443.4" height="30" rx="2" ry="2" style="fill:#C5E1A5; stroke:#444; stroke-width:1"></rect>
                   <title>assert(!(property in loader.app), `customLoader should not override app.${property}`)</title>
            <text x="276" y="1738" font-family="monospace" font-size="13" fill="#222">
                <tspan x="276" y="1738">assert(!(property in loader.app), `customLoader sh...</tspan>
            </text>
                   
                   
                </g>
                <g>
                   <rect x="261" y="1766.5" width="225" height="30" rx="3" ry="3" style="fill:#90caf9; stroke:#444; stroke-width:1"></rect>
                   <title>const defaultConfig = {*}</title>
            <text x="276" y="1786.5" font-family="monospace" font-size="13" fill="#222">
                <tspan x="276" y="1786.5">const defaultConfig = {*}</tspan>
            </text>
                   
                   
                </g>
                <g>
                   <rect x="298" y="1815" width="170.4" height="30" rx="2" ry="2" style="fill:#90caf9; stroke:#444; stroke-width:1"></rect>
                   <title>caseStyle: 'lower'</title>
            <text x="313" y="1835" font-family="monospace" font-size="13" fill="#222">
                <tspan x="313" y="1835">caseStyle: 'lower'</tspan>
            </text>
                   
                   
                </g>
            <g>
                <rect x="298" y="1878.5" width="174.8" height="30" style="fill:#a5d6a7; stroke:#444; stroke-width:1"></rect>
                    
                <line x1="308" y1="1878.5" x2="308" y2="1908.5" style="fill:#a5d6a7; stroke:#444; stroke-width:1"></line>
                <line x1="462.8" y1="1878.5" x2="462.8" y2="1908.5" style="fill:#a5d6a7; stroke:#444; stroke-width:1"></line>
             
                <title>initializer(Clz)</title>
            <text x="323" y="1898.5" font-family="monospace" font-size="13" fill="#222">
                <tspan x="323" y="1898.5">initializer(Clz)</tspan>
            </text>
                
            </g>
                <g>
                   <rect x="335" y="1927" width="115.8" height="30" rx="3" ry="3" style="fill:#90caf9; stroke:#444; stroke-width:1"></rect>
                   <title>initializer</title>
            <text x="350" y="1947" font-family="monospace" font-size="13" fill="#222">
                <tspan x="350" y="1947">initializer</tspan>
            </text>
                   
                   
                </g>
            <g>
                <rect x="335" y="1975.5" width="76.8" height="30" rx="3" ry="3" style="fill:#90caf9; stroke:#444; stroke-width:1"></rect>
                
                <line x1="411.8" y1="1985.5" x2="416.8" y2="1985.5" style="fill:#a5d6a7; stroke:#444; stroke-width:1"></line>
                
                <line x1="411.8" y1="1995.5" x2="416.8" y2="1995.5" style="fill:#a5d6a7; stroke:#444; stroke-width:1"></line>

                <path d="M416.8, 1979.5 L432.8, 1990.5 L416.8, 2001.5 Z" fill="#a5d6a7" stroke="#444" stroke-width="1"></path>
                             
                <title>return</title>
            <text x="350" y="1995.5" font-family="monospace" font-size="13" fill="#222">
                <tspan x="350" y="1995.5">return</tspan>
            </text>
                
            </g><g>
            <rect x="402" y="2039" width="177" height="30" rx="3" ry="3" style="fill:#ce93d8; stroke:#444; stroke-width:1"></rect>                
            <polygon points="372,2054 402,2024 432,2054 402,2084" style="fill:#ce93d8; stroke:#444; stroke-width:1"></polygon>
            <title>(is.class(Clz))</title>
            <text x="447" y="2059" font-family="monospace" font-size="13" fill="#222">
                <tspan x="447" y="2059">(is.class(Clz))</tspan>
            </text>
            
            <text x="398.1" y="2059" font-family="monospace" font-size="13" fill="#222">?</text> <text x="409.8" y="2085.95" font-family="monospace" font-size="13" fill="#222">+</text> <text x="582.9" y="2052.05" font-family="monospace" font-size="13" fill="#222">-</text>
        </g>
                <g>
                   <rect x="422" y="2094" width="131.39999999999998" height="30" rx="2" ry="2" style="fill:#C5E1A5; stroke:#444; stroke-width:1"></rect>
                   <title>is.class(Clz)</title>
            <text x="437" y="2114" font-family="monospace" font-size="13" fill="#222">
                <tspan x="437" y="2114">is.class(Clz)</tspan>
            </text>
                   
                   
                </g>
                <g>
                   <rect x="422" y="2142.5" width="178.2" height="30" rx="3" ry="3" style="fill:#90caf9; stroke:#444; stroke-width:1"></rect>
                   <title>new Clz(loader.app)</title>
            <text x="437" y="2162.5" font-family="monospace" font-size="13" fill="#222">
                <tspan x="437" y="2162.5">new Clz(loader.app)</tspan>
            </text>
                   
                   
                </g>
                <g>
                   <rect x="660.2" y="2094" width="53.4" height="30" rx="3" ry="3" style="fill:#90caf9; stroke:#444; stroke-width:1"></rect>
                   <title>Clz</title>
            <text x="675.2" y="2114" font-family="monospace" font-size="13" fill="#222">
                <tspan x="675.2" y="2114">Clz</tspan>
            </text>
                   
                   
                </g>
                <g>
                   <rect x="261" y="2192.5" width="443.4" height="30" rx="2" ry="2" style="fill:#C5E1A5; stroke:#444; stroke-width:1"></rect>
                   <title>loader.loadToApp(directory, property, Object.assign(defaultConfig, loaderConfig))</title>
            <text x="276" y="2212.5" font-family="monospace" font-size="13" fill="#222">
                <tspan x="276" y="2212.5">loader.loadToApp(directory, property, Object.assig...</tspan>
            </text>
                   
                   
                </g>
            <g>
                <rect x="261" y="2241" width="69" height="30" rx="2" ry="2" style="fill:#90caf9; stroke:#444; stroke-width:1"></rect>
                
                <line x1="330" y1="2251" x2="335" y2="2251" style="fill:#ce93d8; stroke:#444; stroke-width:1"></line>
                
                <line x1="330" y1="2261" x2="335" y2="2261" style="fill:#ce93d8; stroke:#444; stroke-width:1"></line>

                <path d="M335, 2242 L351, 2256 L335, 2270 Z" fill="#ce93d8" stroke="#444" stroke-width="1"></path>
                             
                <title>break</title>
            <text x="276" y="2261" font-family="monospace" font-size="13" fill="#222">
                <tspan x="276" y="2261">break</tspan>
            </text>
                
            </g>
                <g>
                   <rect x="224" y="2289.5" width="92.4" height="30" rx="2" ry="2" style="fill:#ce93d8; stroke:#444; stroke-width:1"></rect>
                   <title>default:</title>
            <text x="239" y="2309.5" font-family="monospace" font-size="13" fill="#222">
                <tspan x="239" y="2309.5">default:</tspan>
            </text>
                   
                   
                </g>
                <g>
                   <rect x="261" y="2338" width="412.2" height="30" rx="2" ry="2" style="fill:#ef9a9a; stroke:#444; stroke-width:1"></rect>
                   <title>throw new Error('inject only support app or ctx')</title>
            <text x="276" y="2358" font-family="monospace" font-size="13" fill="#222">
                <tspan x="276" y="2358">throw new Error('inject only support app or ctx')</tspan>
            </text>
                   
                   
                </g>
            <g>
               <rect x="25" y="13.75" width="216.6" height="24" style="fill:#fff59d; stroke:#444; stroke-width:1"></rect>
               <circle cx="25" cy="25" r="15" style="fill:#fff59d; stroke:#444; stroke-width:1"></circle>
               <title>Program: source module</title>
            <text x="55" y="30" font-family="monospace" font-size="13" fill="#222">
                <tspan x="55" y="30">Program: source module</tspan>
            </text>
            </g>
            <g>
               <path d="M25, 40 L25 76 Q25 80
                29 80
                L42 80 " style="fill:none; stroke:#444; stroke-width:1"></path>
               <path d="M42, 77 L50, 80 L42, 83 Z" fill="#333"></path>
            </g>
            <g>
               <path d="M25, 40 L25 124.5 Q25 128.5
                29 128.5
                L42 128.5 " style="fill:none; stroke:#444; stroke-width:1"></path>
               <path d="M42, 125.5 L50, 128.5 L42, 131.5 Z" fill="#333"></path>
            </g>
            <g>
               <path d="M25, 40 L25 173 Q25 177
                29 177
                L42 177 " style="fill:none; stroke:#444; stroke-width:1"></path>
               <path d="M42, 174 L50, 177 L42, 180 Z" fill="#333"></path>
            </g>
            <g>
               <path d="M25, 40 L25 221.5 Q25 225.5
                29 225.5
                L42 225.5 " style="fill:none; stroke:#444; stroke-width:1"></path>
               <path d="M42, 222.5 L50, 225.5 L42, 228.5 Z" fill="#333"></path>
            </g>
            <g>
               <path d="M68.5, 240.5 L68.5 285 Q68.5 289
                72.5 289
                L87 289 " style="fill:none; stroke:#444; stroke-width:1"></path>
               false
            </g>
            <g>
               <path d="M105.5, 304 L105.5 333.5 Q105.5 337.5
                109.5 337.5
                L116 337.5 " style="fill:none; stroke:#444; stroke-width:1"></path>
               <path d="M116, 334.5 L124, 337.5 L116, 340.5 Z" fill="#333"></path>
            </g>
            <g>
               <path d="M105.5, 304 L105.5 382 Q105.5 386
                109.5 386
                L116 386 " style="fill:none; stroke:#444; stroke-width:1"></path>
               <path d="M116, 383 L124, 386 L116, 389 Z" fill="#333"></path>
            </g>
            <g>
               <path d="M105.5, 304 L105.5 430.5 Q105.5 434.5
                109.5 434.5
                L116 434.5 " style="fill:none; stroke:#444; stroke-width:1"></path>
               <path d="M116, 431.5 L124, 434.5 L116, 437.5 Z" fill="#333"></path>
            </g>
            <g>
               <path d="M105.5, 304 L105.5 479 Q105.5 483
                109.5 483
                L116 483 " style="fill:none; stroke:#444; stroke-width:1"></path>
               <path d="M116, 480 L124, 483 L116, 486 Z" fill="#333"></path>
            </g>
            <g>
               <path d="M105.5, 304 L105.5 562.5 Q105.5 566.5
                109.5 566.5
                L116 566.5 " style="fill:none; stroke:#444; stroke-width:1"></path>
               <path d="M116, 563.5 L124, 566.5 L116, 569.5 Z" fill="#333"></path>
            </g>
            <g>
               <path d="M154, 596.5 L154 617.5 Q154 621.5
                158 621.5
                L166 621.5 " style="fill:none; stroke:#444; stroke-width:1"></path>
               <path d="M166, 618.5 L174, 621.5 L166, 624.5 Z" fill="#333"></path>
            </g>
            <g>
               <path d="M154, 596.5 L154 666 Q154 670
                158 670
                L166 670 " style="fill:none; stroke:#444; stroke-width:1"></path>
               <path d="M166, 667 L174, 670 L166, 673 Z" fill="#333"></path>
            </g>
            <g>
               <path d="M154, 596.5 L154 714.5 Q154 718.5
                158 718.5
                L166 718.5 " style="fill:none; stroke:#444; stroke-width:1"></path>
               <path d="M166, 715.5 L174, 718.5 L166, 721.5 Z" fill="#333"></path>
            </g>
            <g>
               <path d="M154, 596.5 L154 763 Q154 767
                158 767
                L166 767 " style="fill:none; stroke:#444; stroke-width:1"></path>
               <path d="M166, 764 L174, 767 L166, 770 Z" fill="#333"></path>
            </g>
            <g>
               <path d="M154, 596.5 L154 826.5 Q154 830.5
                158 830.5
                L166 830.5 " style="fill:none; stroke:#444; stroke-width:1"></path>
               <path d="M166, 827.5 L174, 830.5 L166, 833.5 Z" fill="#333"></path>
            </g>
            <g>
               <path d="M204, 860.5 L204 881.5 Q204 885.5
                208 885.5
                L216 885.5 " style="fill:none; stroke:#444; stroke-width:1"></path>
               <path d="M216, 882.5 L224, 885.5 L216, 888.5 Z" fill="#333"></path>
            </g>
            <g>
               <path d="M242.5, 900.5 L242.5 930 Q242.5 934
                246.5 934
                L253 934 " style="fill:none; stroke:#444; stroke-width:1"></path>
               <path d="M253, 931 L261, 934 L253, 937 Z" fill="#333"></path>
            </g>
            <g>
               <path d="M242.5, 900.5 L242.5 978.5 Q242.5 982.5
                246.5 982.5
                L261 982.5 " style="fill:none; stroke:#444; stroke-width:1"></path>
               false
            </g>
            <g>
               <path d="M279.5, 997.5 L279.5 1027 Q279.5 1031
                283.5 1031
                L290 1031 " style="fill:none; stroke:#444; stroke-width:1"></path>
               <path d="M290, 1028 L298, 1031 L290, 1034 Z" fill="#333"></path>
            </g>
            <g>
               <path d="M513.6, 830.5 L798.4 830.5  Q802.4 830.5
                802.4 834.5
                L802.4 877.5 Q802.4 885.5
                806.4 885.5
                L814.4 885.5 " style="fill:none; stroke:#444; stroke-width:1"></path>
               <path d="M814.4, 882.5 L822.4, 885.5 L814.4, 888.5 Z" fill="#333"></path>
            </g>
            <g>
               <path d="M154, 596.5 L154 1077 Q154 1081
                158 1081
                L166 1081 " style="fill:none; stroke:#444; stroke-width:1"></path>
               <path d="M166, 1078 L174, 1081 L166, 1084 Z" fill="#333"></path>
            </g>
            <g>
               <path d="M154, 596.5 L154 1140.5 Q154 1144.5
                158 1144.5
                L166 1144.5 " style="fill:none; stroke:#444; stroke-width:1"></path>
               <path d="M166, 1141.5 L174, 1144.5 L166, 1147.5 Z" fill="#333"></path>
            </g>
            <g>
               <path d="M204, 1174.5 L204 1195.5 Q204 1199.5
                208 1199.5
                L216 1199.5 " style="fill:none; stroke:#444; stroke-width:1"></path>
               <path d="M216, 1196.5 L224, 1199.5 L216, 1202.5 Z" fill="#333"></path>
            </g>
            <g>
               <path d="M242.5, 1214.5 L242.5 1244 Q242.5 1248
                246.5 1248
                L253 1248 " style="fill:none; stroke:#444; stroke-width:1"></path>
               <path d="M253, 1245 L261, 1248 L253, 1251 Z" fill="#333"></path>
            </g>
            <g>
               <path d="M242.5, 1214.5 L242.5 1292.5 Q242.5 1296.5
                246.5 1296.5
                L253 1296.5 " style="fill:none; stroke:#444; stroke-width:1"></path>
               <path d="M253, 1293.5 L261, 1296.5 L253, 1299.5 Z" fill="#333"></path>
            </g>
            <g>
               <path d="M242.5, 1214.5 L242.5 1341 Q242.5 1345
                246.5 1345
                L253 1345 " style="fill:none; stroke:#444; stroke-width:1"></path>
               <path d="M253, 1342 L261, 1345 L253, 1348 Z" fill="#333"></path>
            </g>
            <g>
               <path d="M279.5, 1360 L279.5 1389.5 Q279.5 1393.5
                283.5 1393.5
                L298 1393.5 " style="fill:none; stroke:#444; stroke-width:1"></path>
               false
            </g>
            <g>
               <path d="M279.5, 1360 L279.5 1438 Q279.5 1442
                283.5 1442
                L298 1442 " style="fill:none; stroke:#444; stroke-width:1"></path>
               false
            </g>
            <g>
               <path d="M316.5, 1457 L316.5 1486.5 Q316.5 1490.5
                320.5 1490.5
                L327 1490.5 " style="fill:none; stroke:#444; stroke-width:1"></path>
               <path d="M327, 1487.5 L335, 1490.5 L327, 1493.5 Z" fill="#333"></path>
            </g>
            <g>
               <path d="M242.5, 1214.5 L242.5 1535 Q242.5 1539
                246.5 1539
                L253 1539 " style="fill:none; stroke:#444; stroke-width:1"></path>
               <path d="M253, 1536 L261, 1539 L253, 1542 Z" fill="#333"></path>
            </g>
            <g>
               <path d="M242.5, 1214.5 L242.5 1583.5 Q242.5 1587.5
                246.5 1587.5
                L253 1587.5 " style="fill:none; stroke:#444; stroke-width:1"></path>
               <path d="M253, 1584.5 L261, 1587.5 L253, 1590.5 Z" fill="#333"></path>
            </g>
            <g>
               <path d="M204, 1174.5 L204 1632 Q204 1636
                208 1636
                L216 1636 " style="fill:none; stroke:#444; stroke-width:1"></path>
               <path d="M216, 1633 L224, 1636 L216, 1639 Z" fill="#333"></path>
            </g>
            <g>
               <path d="M242.5, 1651 L242.5 1680.5 Q242.5 1684.5
                246.5 1684.5
                L253 1684.5 " style="fill:none; stroke:#444; stroke-width:1"></path>
               <path d="M253, 1681.5 L261, 1684.5 L253, 1687.5 Z" fill="#333"></path>
            </g>
            <g>
               <path d="M242.5, 1651 L242.5 1729 Q242.5 1733
                246.5 1733
                L253 1733 " style="fill:none; stroke:#444; stroke-width:1"></path>
               <path d="M253, 1730 L261, 1733 L253, 1736 Z" fill="#333"></path>
            </g>
            <g>
               <path d="M242.5, 1651 L242.5 1777.5 Q242.5 1781.5
                246.5 1781.5
                L253 1781.5 " style="fill:none; stroke:#444; stroke-width:1"></path>
               <path d="M253, 1778.5 L261, 1781.5 L253, 1784.5 Z" fill="#333"></path>
            </g>
            <g>
               <path d="M279.5, 1796.5 L279.5 1826 Q279.5 1830
                283.5 1830
                L298 1830 " style="fill:none; stroke:#444; stroke-width:1"></path>
               false
            </g>
            <g>
               <path d="M279.5, 1796.5 L279.5 1889.5 Q279.5 1893.5
                283.5 1893.5
                L298 1893.5 " style="fill:none; stroke:#444; stroke-width:1"></path>
               false
            </g>
            <g>
               <path d="M316.5, 1908.5 L316.5 1938 Q316.5 1942
                320.5 1942
                L327 1942 " style="fill:none; stroke:#444; stroke-width:1"></path>
               <path d="M327, 1939 L335, 1942 L327, 1945 Z" fill="#333"></path>
            </g>
            <g>
               <path d="M316.5, 1908.5 L316.5 1986.5 Q316.5 1990.5
                320.5 1990.5
                L327 1990.5 " style="fill:none; stroke:#444; stroke-width:1"></path>
               <path d="M327, 1987.5 L335, 1990.5 L327, 1993.5 Z" fill="#333"></path>
            </g>
            <g>
               <path d="M353.5, 2005.5 L353.5 2050 Q353.5 2054
                357.5 2054
                L364 2054 " style="fill:none; stroke:#444; stroke-width:1"></path>
               <path d="M364, 2051 L372, 2054 L364, 2057 Z" fill="#333"></path>
            </g>
            <g>
               <path d="M402, 2084 L402 2105 Q402 2109
                406 2109
                L414 2109 " style="fill:none; stroke:#444; stroke-width:1"></path>
               <path d="M414, 2106 L422, 2109 L414, 2112 Z" fill="#333"></path>
            </g>
            <g>
               <path d="M402, 2084 L402 2153.5 Q402 2157.5
                406 2157.5
                L414 2157.5 " style="fill:none; stroke:#444; stroke-width:1"></path>
               <path d="M414, 2154.5 L422, 2157.5 L414, 2160.5 Z" fill="#333"></path>
            </g>
            <g>
               <path d="M579, 2054 L636.2 2054  Q640.2 2054
                640.2 2058
                L640.2 2101 Q640.2 2109
                644.2 2109
                L652.2 2109 " style="fill:none; stroke:#444; stroke-width:1"></path>
               <path d="M652.2, 2106 L660.2, 2109 L652.2, 2112 Z" fill="#333"></path>
            </g>
            <g>
               <path d="M242.5, 1651 L242.5 2203.5 Q242.5 2207.5
                246.5 2207.5
                L253 2207.5 " style="fill:none; stroke:#444; stroke-width:1"></path>
               <path d="M253, 2204.5 L261, 2207.5 L253, 2210.5 Z" fill="#333"></path>
            </g>
            <g>
               <path d="M242.5, 1651 L242.5 2252 Q242.5 2256
                246.5 2256
                L253 2256 " style="fill:none; stroke:#444; stroke-width:1"></path>
               <path d="M253, 2253 L261, 2256 L253, 2259 Z" fill="#333"></path>
            </g>
            <g>
               <path d="M204, 1174.5 L204 2300.5 Q204 2304.5
                208 2304.5
                L216 2304.5 " style="fill:none; stroke:#444; stroke-width:1"></path>
               <path d="M216, 2301.5 L224, 2304.5 L216, 2307.5 Z" fill="#333"></path>
            </g>
            <g>
               <path d="M242.5, 2319.5 L242.5 2349 Q242.5 2353
                246.5 2353
                L253 2353 " style="fill:none; stroke:#444; stroke-width:1"></path>
               <path d="M253, 2350 L261, 2353 L253, 2356 Z" fill="#333"></path>
            </g>
            <g>
               <path d="M673.2, 2353 L1281.8 2353  Q1285.8 2353
                1285.8 2349
                L1285.8 524.5 Q1285.8 516.5
                1281.8 516.5
                L162 516.5  Q154 516.5
                154 520.5
                L154 528.5" style="fill:none; stroke:#444; stroke-width:1"></path>
               <path d="M151, 528.5 L154, 536.5 L157, 528.5 Z" fill="#333"></path>
            </g>
            </svg>