
                <svg xmlns="http://www.w3.org/2000/svg" xmlns:xlink="http://www.w3.org/1999/xlink" width="398" height="426" shape-rendering="optimizeSpeed">
                
            <g>
                <rect x="50" y="80" width="229.4" height="30" style="fill:#80cbc4; stroke:#444; stroke-width:1"></rect>
                    
                <line x1="60" y1="80" x2="60" y2="110" style="fill:#80cbc4; stroke:#444; stroke-width:1"></line>
                <line x1="269.4" y1="80" x2="269.4" y2="110" style="fill:#80cbc4; stroke:#444; stroke-width:1"></line>
             
                <title>class BaseContextClass </title>
            <text x="75" y="100" font-family="monospace" font-size="13" fill="#222">
                <tspan x="75" y="100">class BaseContextClass </tspan>
            </text>
                
            </g>
            <g>
                <rect x="87" y="128.5" width="174.8" height="30" style="fill:#a5d6a7; stroke:#444; stroke-width:1"></rect>
                    
                <line x1="97" y1="128.5" x2="97" y2="158.5" style="fill:#a5d6a7; stroke:#444; stroke-width:1"></line>
                <line x1="251.8" y1="128.5" x2="251.8" y2="158.5" style="fill:#a5d6a7; stroke:#444; stroke-width:1"></line>
             
                <title>constructor(ctx)</title>
            <text x="112" y="148.5" font-family="monospace" font-size="13" fill="#222">
                <tspan x="112" y="148.5">constructor(ctx)</tspan>
            </text>
                
            </g>
                <g>
                   <rect x="124" y="177" width="139.2" height="30" rx="3" ry="3" style="fill:#90caf9; stroke:#444; stroke-width:1"></rect>
                   <title>this.ctx = ctx</title>
            <text x="139" y="197" font-family="monospace" font-size="13" fill="#222">
                <tspan x="139" y="197">this.ctx = ctx</tspan>
            </text>
                   
                   
                </g>
                <g>
                   <rect x="124" y="225.5" width="170.4" height="30" rx="3" ry="3" style="fill:#90caf9; stroke:#444; stroke-width:1"></rect>
                   <title>this.app = ctx.app</title>
            <text x="139" y="245.5" font-family="monospace" font-size="13" fill="#222">
                <tspan x="139" y="245.5">this.app = ctx.app</tspan>
            </text>
                   
                   
                </g>
                <g>
                   <rect x="124" y="274" width="248.4" height="30" rx="3" ry="3" style="fill:#90caf9; stroke:#444; stroke-width:1"></rect>
                   <title>this.config = ctx.app.config</title>
            <text x="139" y="294" font-family="monospace" font-size="13" fill="#222">
                <tspan x="139" y="294">this.config = ctx.app.config</tspan>
            </text>
                   
                   
                </g>
                <g>
                   <rect x="124" y="322.5" width="232.79999999999998" height="30" rx="3" ry="3" style="fill:#90caf9; stroke:#444; stroke-width:1"></rect>
                   <title>this.service = ctx.service</title>
            <text x="139" y="342.5" font-family="monospace" font-size="13" fill="#222">
                <tspan x="139" y="342.5">this.service = ctx.service</tspan>
            </text>
                   
                   
                </g>
                <g>
                   <rect x="50" y="371" width="287.4" height="30" rx="3" ry="3" style="fill:#90caf9; stroke:#444; stroke-width:1"></rect>
                   <title>module.exports = BaseContextClass</title>
            <text x="65" y="391" font-family="monospace" font-size="13" fill="#222">
                <tspan x="65" y="391">module.exports = BaseContextClass</tspan>
            </text>
                   
                   
                </g>
            <g>
               <rect x="25" y="13.75" width="216.6" height="24" style="fill:#fff59d; stroke:#444; stroke-width:1"></rect>
               <circle cx="25" cy="25" r="15" style="fill:#fff59d; stroke:#444; stroke-width:1"></circle>
               <title>Program: source module</title>
            <text x="55" y="30" font-family="monospace" font-size="13" fill="#222">
                <tspan x="55" y="30">Program: source module</tspan>
            </text>
            </g>
            <g>
               <path d="M25, 40 L25 91 Q25 95
                29 95
                L42 95 " style="fill:none; stroke:#444; stroke-width:1"></path>
               <path d="M42, 92 L50, 95 L42, 98 Z" fill="#333"></path>
            </g>
            <g>
               <path d="M68.5, 110 L68.5 139.5 Q68.5 143.5
                72.5 143.5
                L79 143.5 " style="fill:none; stroke:#444; stroke-width:1"></path>
               <path d="M79, 140.5 L87, 143.5 L79, 146.5 Z" fill="#333"></path>
            </g>
            <g>
               <path d="M105.5, 158.5 L105.5 188 Q105.5 192
                109.5 192
                L116 192 " style="fill:none; stroke:#444; stroke-width:1"></path>
               <path d="M116, 189 L124, 192 L116, 195 Z" fill="#333"></path>
            </g>
            <g>
               <path d="M105.5, 158.5 L105.5 236.5 Q105.5 240.5
                109.5 240.5
                L116 240.5 " style="fill:none; stroke:#444; stroke-width:1"></path>
               <path d="M116, 237.5 L124, 240.5 L116, 243.5 Z" fill="#333"></path>
            </g>
            <g>
               <path d="M105.5, 158.5 L105.5 285 Q105.5 289
                109.5 289
                L116 289 " style="fill:none; stroke:#444; stroke-width:1"></path>
               <path d="M116, 286 L124, 289 L116, 292 Z" fill="#333"></path>
            </g>
            <g>
               <path d="M105.5, 158.5 L105.5 333.5 Q105.5 337.5
                109.5 337.5
                L116 337.5 " style="fill:none; stroke:#444; stroke-width:1"></path>
               <path d="M116, 334.5 L124, 337.5 L116, 340.5 Z" fill="#333"></path>
            </g>
            <g>
               <path d="M25, 40 L25 382 Q25 386
                29 386
                L42 386 " style="fill:none; stroke:#444; stroke-width:1"></path>
               <path d="M42, 383 L50, 386 L42, 389 Z" fill="#333"></path>
            </g>
            </svg>